<?xml version="1.0"?>
<svg xmlns="http://www.w3.org/2000/svg" xmlns:xlink="http://www.w3.org/1999/xlink" xmlns:svgjs="http://svgjs.com/svgjs" version="1.1" width="512" height="512" x="0" y="0" viewBox="0 0 512.004 512.004" style="enable-background:new 0 0 512 512" xml:space="preserve" class=""><g>
<g xmlns="http://www.w3.org/2000/svg">
	<path style="" d="M409.602,256.002c0,84.83-68.77,153.6-153.6,153.6s-153.6-68.77-153.6-153.6   s68.77-153.6,153.6-153.6S409.602,171.172,409.602,256.002" fill="#ecf0f1" data-original="#ecf0f1" class=""/>
	<path style="" d="M298.669,256.002c0,23.561-19.106,42.667-42.667,42.667c-23.569,0-42.667-19.106-42.667-42.667   c0-23.561,19.098-42.667,42.667-42.667C279.563,213.335,298.669,232.442,298.669,256.002" fill="#bdc3c7" data-original="#bdc3c7" class=""/>
	<path style="" d="M477.869,264.535c-4.71,0-8.533-3.823-8.533-8.533c0-117.632-95.701-213.333-213.333-213.333   c-4.71,0-8.533-3.823-8.533-8.533s3.823-8.533,8.533-8.533c127.044,0,230.4,103.356,230.4,230.4   C486.402,260.713,482.579,264.535,477.869,264.535" fill="#000000" data-original="#26b99a" class=""/>
	<path style="" d="M256.002,486.402c-127.044,0-230.4-103.356-230.4-230.4c0-4.71,3.823-8.533,8.533-8.533   s8.533,3.823,8.533,8.533c0,117.632,95.701,213.333,213.333,213.333c4.71,0,8.533,3.823,8.533,8.533   S260.713,486.402,256.002,486.402" fill="#e64c3c" data-original="#e64c3c" class=""/>
	<path style="" d="M477.869,264.535c-2.185,0-4.369-0.836-6.033-2.5l-25.6-25.6c-3.337-3.337-3.337-8.73,0-12.066   c3.337-3.337,8.73-3.337,12.066,0l19.567,19.567l19.567-19.567c3.337-3.337,8.73-3.337,12.066,0c3.337,3.337,3.337,8.73,0,12.066   l-25.6,25.6C482.238,263.699,480.053,264.535,477.869,264.535" fill="#000000" data-original="#26b99a" class=""/>
	<path style="" d="M59.735,290.135c-2.185,0-4.369-0.836-6.033-2.5l-19.567-19.567l-19.567,19.567   c-3.337,3.337-8.73,3.337-12.066,0c-3.337-3.337-3.337-8.73,0-12.066l25.6-25.6c3.337-3.337,8.73-3.337,12.066,0l25.6,25.6   c3.337,3.337,3.337,8.73,0,12.066C64.105,289.299,61.92,290.135,59.735,290.135" fill="#e64c3c" data-original="#e64c3c" class=""/>
</g>
<g xmlns="http://www.w3.org/2000/svg">
</g>
<g xmlns="http://www.w3.org/2000/svg">
</g>
<g xmlns="http://www.w3.org/2000/svg">
</g>
<g xmlns="http://www.w3.org/2000/svg">
</g>
<g xmlns="http://www.w3.org/2000/svg">
</g>
<g xmlns="http://www.w3.org/2000/svg">
</g>
<g xmlns="http://www.w3.org/2000/svg">
</g>
<g xmlns="http://www.w3.org/2000/svg">
</g>
<g xmlns="http://www.w3.org/2000/svg">
</g>
<g xmlns="http://www.w3.org/2000/svg">
</g>
<g xmlns="http://www.w3.org/2000/svg">
</g>
<g xmlns="http://www.w3.org/2000/svg">
</g>
<g xmlns="http://www.w3.org/2000/svg">
</g>
<g xmlns="http://www.w3.org/2000/svg">
</g>
<g xmlns="http://www.w3.org/2000/svg">
</g>
</g></svg>
